<svg width="183" height="26" viewBox="0 0 183 26" fill="none" xmlns="http://www.w3.org/2000/svg">
<path d="M8.40739 13.9342L0.398769 1.20677H5.74892L10.5009 9.08246H10.7668L15.3526 1.20677H20.7692L12.8935 13.9342V25H8.40739V13.9342ZM33.486 25.5317C31.7137 25.5317 30.0632 25.2105 28.5346 24.568C27.0281 23.9255 25.721 23.0505 24.6134 21.9428C23.5057 20.8129 22.6306 19.4948 21.9881 17.9883C21.3678 16.4597 21.0577 14.8314 21.0577 13.1034C21.0577 11.3754 21.3678 9.75815 21.9881 8.25169C22.6306 6.72308 23.5057 5.40492 24.6134 4.29723C25.721 3.16738 27.0281 2.28123 28.5346 1.63877C30.0632 0.996306 31.7137 0.675075 33.486 0.675075C35.2583 0.675075 36.8977 0.996306 38.4041 1.63877C39.9327 2.28123 41.2509 3.16738 42.3586 4.29723C43.4663 5.40492 44.3303 6.72308 44.9506 8.25169C45.593 9.75815 45.9143 11.3754 45.9143 13.1034C45.9143 14.8314 45.593 16.4597 44.9506 17.9883C44.3303 19.4948 43.4663 20.8129 42.3586 21.9428C41.2509 23.0505 39.9327 23.9255 38.4041 24.568C36.8977 25.2105 35.2583 25.5317 33.486 25.5317ZM33.486 21.2782C34.5937 21.2782 35.6238 21.0788 36.5764 20.68C37.5512 20.2812 38.393 19.7274 39.102 19.0185C39.833 18.3095 40.398 17.4566 40.7967 16.4597C41.2177 15.4406 41.4281 14.3218 41.4281 13.1034C41.4281 11.8849 41.2177 10.7772 40.7967 9.78031C40.398 8.76123 39.833 7.89723 39.102 7.18831C38.393 6.47938 37.5512 5.92554 36.5764 5.52677C35.6238 5.128 34.5937 4.92861 33.486 4.92861C32.3783 4.92861 31.337 5.128 30.3623 5.52677C29.4097 5.92554 28.5678 6.47938 27.8367 7.18831C27.1278 7.89723 26.5629 8.76123 26.142 9.78031C25.7432 10.7772 25.5438 11.8849 25.5438 13.1034C25.5438 14.3218 25.7432 15.4406 26.142 16.4597C26.5629 17.4566 27.1278 18.3095 27.8367 19.0185C28.5678 19.7274 29.4097 20.2812 30.3623 20.68C31.337 21.0788 32.3783 21.2782 33.486 21.2782ZM58.2517 25.5317C56.856 25.5317 55.5822 25.3102 54.4302 24.8671C53.3003 24.4018 52.3366 23.7372 51.5391 22.8732C50.7416 22.0092 50.1213 20.968 49.6782 19.7495C49.2351 18.5089 49.0136 17.1022 49.0136 15.5292V1.20677H53.4997V15.7951C53.4997 16.5926 53.5994 17.3237 53.7988 17.9883C53.9982 18.6529 54.2973 19.2289 54.696 19.7163C55.0948 20.2037 55.5933 20.5914 56.1914 20.8794C56.7896 21.1452 57.4763 21.2782 58.2517 21.2782C59.0493 21.2782 59.7471 21.1452 60.3453 20.8794C60.9434 20.5914 61.4419 20.2037 61.8406 19.7163C62.2394 19.2289 62.5385 18.6529 62.7379 17.9883C62.9373 17.3237 63.037 16.5926 63.037 15.7951V1.20677H67.5231V15.5292C67.5231 17.0135 67.3016 18.376 66.8585 19.6166C66.4376 20.8351 65.8173 21.8874 64.9976 22.7735C64.2 23.6375 63.2253 24.3132 62.0733 24.8006C60.9434 25.288 59.6696 25.5317 58.2517 25.5317ZM71.7748 25V1.20677H80.3816C82.2647 1.20677 83.8819 1.82708 85.2333 3.06769C86.5847 4.28615 87.2604 5.82584 87.2604 7.68677C87.2604 10.0351 86.1859 11.6855 84.037 12.6382V12.7711C85.2554 13.1698 86.2302 13.8677 86.9613 14.8646C87.6924 15.8394 88.0579 16.9582 88.0579 18.2209C88.0579 20.1705 87.349 21.7877 85.9311 23.0726C84.5576 24.3575 82.8628 25 80.8468 25H71.7748ZM74.8321 4.13108V11.4086H80.3816C81.4671 11.4086 82.3754 11.0431 83.1065 10.312C83.8376 9.55877 84.2031 8.70584 84.2031 7.75323C84.2031 6.82277 83.8487 5.98092 83.1398 5.22769C82.4308 4.49661 81.5558 4.13108 80.5145 4.13108H74.8321ZM74.8321 14.2665V22.0757H80.9798C82.0874 22.0757 83.029 21.688 83.8044 20.9126C84.5576 20.1372 84.9342 19.2178 84.9342 18.1545C84.9342 17.1132 84.5465 16.2049 83.7711 15.4295C82.9958 14.6542 82.021 14.2665 80.8468 14.2665H74.8321ZM105.396 1.20677V4.13108H94.5628V11.6745H104.333V14.5323H94.5628V22.0757H105.396V25H91.5056V1.20677H105.396ZM122.875 25H109.516V1.20677H112.574V22.0757H122.875V25ZM139.957 1.20677V4.13108H129.124V11.6745H138.894V14.5323H129.124V22.0757H139.957V25H126.067V1.20677H139.957ZM159.098 25H142.748V21.8098L155.409 4.13108H143.28V1.20677H158.965V4.39692L146.304 22.0757H159.098V25ZM171.475 4.96184L167.587 15.6954H175.496L171.608 4.96184H171.475ZM164.231 25H160.841L169.813 1.20677H173.269L182.242 25H178.852L176.559 18.5532H166.557L164.231 25Z" fill="white"/>
</svg>
