<svg width="48" height="48" viewBox="0 0 48 48" fill="none" xmlns="http://www.w3.org/2000/svg">
<circle cx="3.98155" cy="44.0185" r="3.98155" fill="white"/>
<path fill-rule="evenodd" clip-rule="evenodd" d="M15.9262 12.1801C15.9262 12.1754 15.9263 12.1707 15.9263 12.1661C15.9263 9.96711 14.1437 8.18451 11.9447 8.18451C9.74575 8.18451 7.96315 9.96711 7.96315 12.1661M15.9262 12.1801V24.1107C15.9262 29.6849 18.3151 32.0738 23.8893 32.0738H35.811C35.8186 32.0738 35.8263 32.0737 35.8339 32.0737C38.0329 32.0737 39.8155 33.8563 39.8155 36.0553C39.8155 38.2542 38.0329 40.0368 35.834 40.0368V40.0369H15.9262C11.9447 40.0369 7.96313 36.0554 7.96313 32.0738V12.1661H7.96315" fill="white"/>
<path fill-rule="evenodd" clip-rule="evenodd" d="M39.8462 27.8962C39.8462 27.8962 39.8462 23.7124 38.2524 21.5208C36.4219 19.0039 31.877 19.1301 31.877 19.1301C31.877 19.1301 30.2642 19.1112 29.4862 18.3331C28.7082 17.5551 28.6893 15.9424 28.6893 15.9424C28.6893 15.9424 28.6893 11.3601 26.2985 9.56698C24.242 8.0246 21.0062 7.95637 20.1415 7.96744C20.0692 7.97135 19.9964 7.97333 19.9232 7.97333C17.7225 7.97333 15.9385 6.18935 15.9385 3.98871C15.9385 1.78808 17.7225 0.00411151 19.9231 0.00408935V0.00389872C19.9231 0.00389872 30.2998 -0.313753 33.8693 4.78544C35.7016 7.403 35.9179 9.60999 35.903 10.6009C35.8977 10.9539 36.0104 11.3097 36.26 11.5593C36.5141 11.8133 36.8618 11.9504 37.2193 11.9863C38.2107 12.0859 40.4171 12.5168 43.0339 14.3485C48.1048 17.8981 47.8188 27.7856 47.8155 27.8953C47.8155 27.8956 47.8155 27.8959 47.8155 27.8962C47.8155 30.0969 46.0315 31.8808 43.8308 31.8808C41.6302 31.8808 39.8462 30.0969 39.8462 27.8962L39.8462 27.8962Z" fill="white"/>
</svg>
