<svg width="72" height="72" viewBox="0 0 72 72" fill="none" xmlns="http://www.w3.org/2000/svg">
<g clip-path="url(#clip0)">
<path d="M68.2199 48.6307L38.1094 31.1818V29.8836C38.1094 28.4031 38.9543 27.026 40.3144 26.2896C43.3787 24.631 45.2001 21.4361 45.0679 17.952C44.889 13.2423 41.0602 9.41282 36.3516 9.23408C33.86 9.13846 31.5004 10.0379 29.7075 11.7638C27.9134 13.4909 26.9253 15.8135 26.9253 18.3034C26.9253 19.4683 27.8698 20.4128 29.0347 20.4128C30.1996 20.4128 31.1441 19.4683 31.1441 18.3034C31.1441 16.9706 31.673 15.7276 32.6333 14.803C33.5925 13.8796 34.8546 13.3977 36.1914 13.4497C38.7093 13.5454 40.7565 15.5933 40.8523 18.112C40.9231 19.9791 39.9475 21.6909 38.3062 22.5795C35.5826 24.0538 33.8906 26.8526 33.8906 29.8836V31.1818L3.78014 48.6307C1.44844 49.982 0 52.4958 0 55.191C0 59.3717 3.40059 62.7727 7.58053 62.7727H64.4195C68.5994 62.7727 72 59.3714 72 55.1909C72 52.4957 70.5516 49.982 68.2199 48.6307ZM64.4195 58.5539H7.58053C5.72681 58.5539 4.21875 57.0452 4.21875 55.1909C4.21875 53.9953 4.86112 52.8803 5.89542 52.2811L36 34.8356L66.1046 52.2811C67.1387 52.8804 67.7812 53.9953 67.7812 55.191C67.7812 57.0453 66.2732 58.5539 64.4195 58.5539Z" fill="white"/>
</g>
<defs>
<clipPath id="clip0">
<rect width="72" height="72" fill="white"/>
</clipPath>
</defs>
</svg>
