<svg width="68" height="50" viewBox="0 0 68 50" fill="none" xmlns="http://www.w3.org/2000/svg">
<path fill-rule="evenodd" clip-rule="evenodd" d="M66.3751 15.7493H43.8751V6.75C43.8738 6.22627 43.7513 5.70994 43.5171 5.2415C43.2828 4.77305 42.9433 4.36523 42.5251 4.05L38.0251 0.675001C37.5236 0.298934 36.9274 0.0699271 36.3031 0.0136389C35.6789 -0.0426492 35.0513 0.0760058 34.4907 0.356309C33.9301 0.636613 33.4586 1.06749 33.1291 1.60066C32.7996 2.13383 32.6251 2.74822 32.6251 3.375V16.7484C29.3551 12.058 24.0188 8.99649 18.0001 8.99649C8.07474 8.99649 5.14045e-05 17.3226 5.14045e-05 27.5569C-0.00883625 31.3681 1.13495 35.093 3.28125 38.2424H1.12505C0.826683 38.2424 0.540535 38.3609 0.329556 38.5719C0.118578 38.7829 5.14045e-05 39.069 5.14045e-05 39.3674V46.1174C0.00105636 47.0122 0.356959 47.8701 0.989676 48.5028C1.62239 49.1355 2.48025 49.4914 3.37505 49.4924H66.3751C66.6734 49.4924 66.9596 49.3739 67.1705 49.1629C67.3815 48.9519 67.5001 48.6658 67.5001 48.3674V16.8743C67.5001 16.5759 67.3815 16.2898 67.1705 16.0788C66.9596 15.8678 66.6734 15.7493 66.3751 15.7493ZM65.2501 17.9993V20.2493H43.8751V17.9993H65.2501ZM47.2501 26.9924C47.6951 26.9924 48.1301 27.1244 48.5001 27.3716C48.8701 27.6188 49.1585 27.9702 49.3288 28.3814C49.4991 28.7925 49.5436 29.2449 49.4568 29.6814C49.37 30.1178 49.1557 30.5187 48.841 30.8334C48.5264 31.1481 48.1255 31.3624 47.689 31.4492C47.2525 31.536 46.8001 31.4914 46.389 31.3211C45.9779 31.1508 45.6265 30.8625 45.3792 30.4924C45.132 30.1224 45.0001 29.6874 45.0001 29.2424C45.0007 28.6459 45.238 28.074 45.6598 27.6522C46.0816 27.2303 46.6535 26.9931 47.2501 26.9924ZM34.8751 38.2424H32.7188C34.5429 35.5691 35.6473 32.4708 35.9255 29.2465L42.7501 29.2447V46.1215C42.7498 46.416 42.634 46.6986 42.4277 46.9087C42.2214 47.1188 41.9409 47.2396 41.6464 47.2452H35.8053C35.9343 46.8832 36.0001 46.5017 36.0001 46.1174V39.3674C36.0001 39.069 35.8815 38.7829 35.6705 38.5719C35.4596 38.3609 35.1734 38.2424 34.8751 38.2424ZM41.8717 24.7445L42.4342 26.9945L35.9912 26.9965C35.9698 26.2427 35.9038 25.4908 35.7936 24.7448L41.8717 24.7445ZM35.4968 2.36939C35.683 2.27356 35.8927 2.23266 36.1013 2.25146C36.3099 2.27026 36.5089 2.34798 36.675 2.47556L41.175 5.85056C41.3145 5.95563 41.4277 6.09157 41.5057 6.24772C41.5838 6.40387 41.6246 6.57599 41.6251 6.75057V13.4959H34.8751V3.37542C34.8727 3.16605 34.9299 2.96032 35.0399 2.7822C35.15 2.60408 35.3084 2.46092 35.4968 2.36939ZM34.8751 15.7454H41.6251V22.4945H35.3194C35.189 22.0211 35.0409 21.5556 34.8751 21.098V15.7454ZM2.25005 27.5569C2.25005 18.5633 9.31547 11.2465 18.0001 11.2465C26.6846 11.2465 33.7501 18.5633 33.7501 27.5569C33.7631 31.4609 32.3992 35.2446 29.8982 38.2424H25.4532C27.872 36.6407 29.7104 34.3025 30.6963 31.5741C31.6821 28.8457 31.7628 25.8724 30.9264 23.0945C30.0901 20.3167 28.3811 17.8821 26.0528 16.1516C23.7245 14.421 20.9006 13.4865 17.9996 13.4865C15.0986 13.4865 12.2748 14.421 9.94644 16.1516C7.61812 17.8821 5.90919 20.3167 5.07283 23.0945C4.23647 25.8724 4.31718 28.8457 5.303 31.5741C6.28882 34.3025 8.12731 36.6407 10.5461 38.2424H6.10191C3.60092 35.2446 2.23701 31.4609 2.25005 27.5569ZM21.3751 40.4924V41.6174C21.3747 41.9157 21.2561 42.2016 21.0452 42.4125C20.8343 42.6234 20.5483 42.7421 20.2501 42.7424H15.7501C15.4518 42.7421 15.1658 42.6234 14.9549 42.4125C14.744 42.2016 14.6254 41.9157 14.6251 41.6174V40.4924H21.3751ZM18.0001 38.2424C15.775 38.2424 13.5999 37.5826 11.7499 36.3464C9.89983 35.1103 8.45789 33.3533 7.60641 31.2976C6.75492 29.2419 6.53213 26.9799 6.96622 24.7976C7.4003 22.6154 8.47176 20.6108 10.0451 19.0375C11.6184 17.4641 13.623 16.3927 15.8053 15.9586C17.9876 15.5245 20.2496 15.7473 22.3052 16.5988C24.3609 17.4502 26.1179 18.8922 27.3541 20.7422C28.5903 22.5923 29.2501 24.7674 29.2501 26.9924C29.2467 29.9751 28.0603 32.8346 25.9513 34.9436C23.8422 37.0527 20.9827 38.239 18.0001 38.2424ZM2.25005 46.1174V40.4924H12.3751V41.6174C12.3761 42.5122 12.732 43.3701 13.3647 44.0028C13.9974 44.6355 14.8553 44.9914 15.7501 44.9924H20.2501C21.1448 44.9914 22.0027 44.6355 22.6354 44.0028C23.2681 43.3701 23.624 42.5122 23.6251 41.6174V40.4924H33.7501V46.1174C33.7497 46.4157 33.6311 46.7016 33.4202 46.9125C33.2093 47.1234 32.9233 47.2421 32.6251 47.2424H3.37505C3.07679 47.2421 2.79083 47.1234 2.57993 46.9125C2.36902 46.7016 2.25039 46.4157 2.25005 46.1174ZM44.8071 47.2451C44.9349 46.8843 45.0002 46.5043 45.0001 46.1215V44.387C45.6841 44.7829 46.4603 44.9917 47.2506 44.9924C48.041 44.9931 48.8175 44.7856 49.5022 44.3908C50.1869 43.996 50.7555 43.4278 51.1509 42.7435C51.5462 42.0591 51.7544 41.2827 51.7544 40.4924C51.7544 39.7021 51.5462 38.9257 51.1509 38.2413C50.7555 37.557 50.1869 36.9888 49.5022 36.594C48.8175 36.1993 48.041 35.9917 47.2506 35.9924C46.4603 35.9931 45.6841 36.2019 45.0001 36.5978V33.137C45.7091 33.5474 46.5168 33.7564 47.3359 33.7416C48.155 33.7267 48.9546 33.4885 49.6483 33.0526C50.342 32.6168 50.9035 31.9998 51.2724 31.2682C51.6412 30.5367 51.8033 29.7183 51.7413 28.9014C51.6792 28.0845 51.3953 27.3 50.9202 26.6326C50.4451 25.9652 49.7968 25.4401 49.0452 25.1141C48.2936 24.788 47.4673 24.6733 46.6553 24.7823C45.8433 24.8914 45.0765 25.22 44.4376 25.7328L43.8751 23.4809V22.4987H65.2501V47.2425L44.8071 47.2451ZM45.0001 40.4924C45.0001 40.0474 45.132 39.6124 45.3792 39.2424C45.6265 38.8724 45.9779 38.584 46.389 38.4137C46.8001 38.2434 47.2525 38.1988 47.689 38.2856C48.1255 38.3725 48.5264 38.5868 48.841 38.9014C49.1557 39.2161 49.37 39.617 49.4568 40.0535C49.5436 40.4899 49.4991 40.9423 49.3288 41.3534C49.1585 41.7646 48.8701 42.116 48.5001 42.3632C48.1301 42.6104 47.6951 42.7424 47.2501 42.7424C46.6535 42.7417 46.0816 42.5045 45.6598 42.0827C45.238 41.6608 45.0007 41.0889 45.0001 40.4924ZM58.5001 24.7465C57.61 24.7465 56.74 25.0104 56 25.5048C55.26 25.9993 54.6832 26.7021 54.3426 27.5244C54.002 28.3467 53.9129 29.2515 54.0865 30.1244C54.2602 30.9973 54.6887 31.7991 55.3181 32.4285C55.9474 33.0578 56.7492 33.4864 57.6222 33.66C58.4951 33.8336 59.3999 33.7445 60.2221 33.4039C61.0444 33.0633 61.7472 32.4866 62.2417 31.7465C62.7361 31.0065 63 30.1365 63 29.2465C62.9987 28.0534 62.5242 26.9096 61.6805 26.066C60.8369 25.2223 59.6931 24.7478 58.5001 24.7465ZM58.5001 31.4965C58.055 31.4965 57.62 31.3645 57.25 31.1173C56.88 30.87 56.5916 30.5186 56.4213 30.1075C56.251 29.6964 56.2065 29.244 56.2933 28.8075C56.3801 28.3711 56.5944 27.9701 56.9091 27.6555C57.2237 27.3408 57.6246 27.1265 58.0611 27.0397C58.4976 26.9529 58.95 26.9974 59.3611 27.1677C59.7722 27.338 60.1236 27.6264 60.3709 27.9964C60.6181 28.3664 60.7501 28.8015 60.7501 29.2465C60.7493 29.843 60.5121 30.4149 60.0903 30.8367C59.6685 31.2585 59.0966 31.4958 58.5001 31.4965ZM56 36.7548C56.74 36.2604 57.61 35.9965 58.5001 35.9965C59.6931 35.9978 60.8369 36.4723 61.6805 37.316C62.5242 38.1596 62.9987 39.3034 63 40.4965C63 41.3865 62.7361 42.2565 62.2417 42.9965C61.7472 43.7366 61.0444 44.3133 60.2221 44.6539C59.3999 44.9945 58.4951 45.0836 57.6222 44.91C56.7492 44.7364 55.9474 44.3078 55.3181 43.6785C54.6887 43.0491 54.2602 42.2473 54.0865 41.3744C53.9129 40.5015 54.002 39.5967 54.3426 38.7744C54.6832 37.9521 55.26 37.2493 56 36.7548ZM57.25 42.3673C57.62 42.6145 58.055 42.7465 58.5001 42.7465C59.0966 42.7458 59.6685 42.5085 60.0903 42.0867C60.5121 41.6649 60.7493 41.093 60.7501 40.4965C60.7501 40.0515 60.6181 39.6164 60.3709 39.2464C60.1236 38.8764 59.7722 38.588 59.3611 38.4177C58.95 38.2474 58.4976 38.2029 58.0611 38.2897C57.6246 38.3765 57.2237 38.5908 56.9091 38.9055C56.5944 39.2201 56.3801 39.6211 56.2933 40.0575C56.2065 40.494 56.251 40.9464 56.4213 41.3575C56.5916 41.7686 56.88 42.12 57.25 42.3673Z" fill="white"/>
</svg>
