<svg width="72" height="72" viewBox="0 0 72 72" fill="none" xmlns="http://www.w3.org/2000/svg">
<g clip-path="url(#clip0)">
<path d="M58.9229 0C54.5917 0 50.7464 2.1188 48.3652 5.37469H35.3316V2.11711C35.3316 0.952172 34.3872 0.00773438 33.2222 0.00773438H21.9219C20.757 0.00773438 19.8125 0.952172 19.8125 2.11711V5.37469H16.3481C15.1831 5.37469 14.2387 6.31913 14.2387 7.48406C14.2387 8.649 15.1831 9.59344 16.3481 9.59344H19.8125V13.4134H19.3191C18.1541 13.4134 17.2097 14.3578 17.2097 15.5228V23.9756C7.12673 28.0689 0 37.9484 0 49.4581C0 53.8334 1.05666 58.1882 3.05564 62.0516C4.98839 65.787 7.80623 69.0848 11.2043 71.5888C11.5668 71.8559 12.0053 72 12.4556 72H42.6883C43.1385 72 43.577 71.8559 43.9395 71.5888C47.3376 69.0848 50.1553 65.7869 52.0881 62.0515C54.0872 58.1881 55.1437 53.8334 55.1437 49.4581C55.1437 37.9485 48.0168 28.0693 37.9342 23.9759V15.5228C37.9342 14.3578 36.9897 13.4134 35.8248 13.4134H35.3313V9.59344H46.3196C46.0111 10.7065 45.8454 11.8783 45.8454 13.0884C45.8454 20.3053 51.7119 26.1768 58.9226 26.1768C66.1333 26.1768 72 20.3053 72 13.0884C72 5.87152 66.1335 0 58.9229 0V0ZM21.4283 23.2996V17.6321H33.7155V23.2996H21.4283ZM50.9252 49.4581C50.9252 53.2146 50.0559 56.7994 48.3414 60.1128C46.8082 63.0761 44.6164 65.715 41.9782 67.7814H13.1657C10.5278 65.7152 8.33583 63.0762 6.80259 60.1128C5.08809 56.7993 4.21875 53.2146 4.21875 49.4581C4.21875 39.3504 10.7141 30.7285 19.7616 27.5183H35.3822C44.4299 30.7285 50.9252 39.3504 50.9252 49.4581ZM24.0311 13.4132V4.22648H31.1127V13.4134H24.0311V13.4132ZM58.9229 21.958C54.0384 21.958 50.0645 17.9792 50.0645 13.0884C50.0645 8.19759 54.0382 4.21875 58.9229 4.21875C63.8075 4.21875 67.7812 8.19759 67.7812 13.0884C67.7812 17.9792 63.8073 21.958 58.9229 21.958Z" fill="white"/>
</g>
<defs>
<clipPath id="clip0">
<rect width="72" height="72" fill="white"/>
</clipPath>
</defs>
</svg>
