<svg width="72" height="72" viewBox="0 0 72 72" fill="none" xmlns="http://www.w3.org/2000/svg">
<path d="M27.9496 70.0541C27.5995 70.055 27.2509 70.0102 26.9124 69.9208C25.0336 69.4187 23.8787 67.6664 22.7617 65.9715C22.1576 64.8672 21.3334 63.8986 20.34 63.1255C19.1554 62.6377 17.8827 62.3998 16.6018 62.427C14.5946 62.3044 12.5221 62.173 11.1736 60.8274C9.82507 59.4818 9.69664 57.4054 9.57307 55.3992C9.59889 54.1196 9.36075 52.8484 8.8735 51.6649C8.10064 50.6707 7.1316 49.8461 6.02658 49.2422C4.33166 48.1252 2.57934 46.9703 2.07826 45.0915C1.59177 43.2895 2.51123 41.4535 3.39566 39.6769C4.07578 38.5541 4.5142 37.3018 4.68291 36C4.51351 34.6996 4.07512 33.4487 3.39566 32.3271C2.51123 30.5514 1.59664 28.7144 2.07826 26.9125C2.57934 25.0337 4.33264 23.8787 6.02658 22.7618C7.13152 22.1582 8.10056 21.3339 8.8735 20.34C9.36091 19.1553 9.59873 17.8827 9.5721 16.6019C9.69664 14.5966 9.8241 12.5232 11.1726 11.1737C12.5212 9.82414 14.5946 9.69668 16.6009 9.57311C17.8804 9.59893 19.1516 9.36079 20.3351 8.87354C21.3297 8.10237 22.1556 7.13543 22.7617 6.03246C23.8787 4.33754 25.0336 2.58522 26.9124 2.08316C28.7085 1.60543 30.5504 2.51614 32.328 3.40057C33.4497 4.07834 34.7002 4.51508 36 4.68295C37.3001 4.51358 38.5507 4.07519 39.672 3.3957C41.4496 2.51127 43.2914 1.60057 45.0876 2.0783C46.9664 2.58035 48.1213 4.33268 49.2383 6.0276C49.8438 7.13233 50.6697 8.10098 51.6648 8.87354C52.8495 9.36141 54.1221 9.59925 55.403 9.57214C57.4083 9.6957 59.4827 9.82414 60.8312 11.1727C62.1798 12.5212 62.3033 14.5946 62.4269 16.6009C62.4011 17.8805 62.6392 19.1517 63.1265 20.3352C63.8993 21.3294 64.8684 22.154 65.9734 22.7579C67.6683 23.8748 69.4206 25.0298 69.9217 26.9086C70.4033 28.7105 69.4887 30.5465 68.6043 32.3232C67.9242 33.4459 67.4858 34.6982 67.3171 36C67.4865 37.3004 67.9249 38.5513 68.6043 39.673C69.4887 41.4497 70.4033 43.2857 69.9217 45.0876C69.4206 46.9664 67.6673 48.1213 65.9734 49.2383C64.868 49.8433 63.8989 50.6693 63.1265 51.6649C62.6391 52.8497 62.4012 54.1222 62.4279 55.4031C62.3033 57.4084 62.1759 59.4818 60.8273 60.8313C59.4788 62.1808 57.4054 62.3034 55.3991 62.427C54.1182 62.4006 52.8456 62.6387 51.661 63.1265C50.6673 63.8995 49.8427 64.8681 49.2383 65.9725C48.1213 67.6674 46.9664 69.4197 45.0876 69.9218C43.2914 70.4005 41.4496 69.4888 39.672 68.6044C38.5507 67.9249 37.3001 67.4865 36 67.3171C34.6999 67.4865 33.4493 67.9249 32.328 68.6044C30.9949 69.4081 29.4989 69.9035 27.9496 70.0541ZM27.9496 3.89192C27.7681 3.89034 27.5872 3.91259 27.4116 3.95808C26.244 4.26943 25.3002 5.70943 24.3817 7.09787C23.6312 8.46732 22.5816 9.64994 21.311 10.5578C19.8715 11.2177 18.3019 11.5449 16.7186 11.5152C14.9984 11.6212 13.3745 11.7214 12.5455 12.5494C11.7165 13.3774 11.6173 15.0023 11.5112 16.7225C11.5413 18.3057 11.2144 19.8754 10.5548 21.3149C9.64896 22.5845 8.46913 23.6339 7.10269 24.3857C5.71134 25.3032 4.27426 26.2508 3.96193 27.4145C3.67004 28.5052 4.38615 29.9442 5.14215 31.4592C5.97357 32.8414 6.4818 34.3937 6.62885 36C6.48031 37.6067 5.97041 39.1591 5.13728 40.5409C4.37837 42.0607 3.66712 43.4919 3.95707 44.5855C4.26939 45.7531 5.70842 46.6969 7.09783 47.6144C8.46711 48.3656 9.64966 49.4154 10.5577 50.6861C11.2177 52.1256 11.5449 53.6952 11.5151 55.2785C11.6212 56.9987 11.7214 58.6226 12.5494 59.4516C13.3774 60.2806 15.0023 60.3798 16.7225 60.4859C18.3057 60.4553 19.8755 60.7822 21.3149 61.4423C22.5853 62.3504 23.6349 63.5329 24.3856 64.9022C25.3031 66.2926 26.2508 67.7306 27.4145 68.042C28.5052 68.3339 29.9442 67.6197 31.4601 66.8627C32.8415 66.0295 34.3936 65.5196 36 65.3712C37.6064 65.5196 39.1584 66.0295 40.5399 66.8627C42.0597 67.6197 43.4967 68.3339 44.5855 68.042C45.7531 67.7306 46.6968 66.2906 47.6153 64.9022C48.3658 63.5327 49.4154 62.3501 50.686 61.4423C52.1255 60.7824 53.6952 60.4551 55.2785 60.4849C56.9987 60.3788 58.6226 60.2786 59.4516 59.4506C60.2805 58.6226 60.3798 56.9978 60.4858 55.2775C60.4557 53.6943 60.7826 52.1247 61.4423 50.6851C62.3503 49.4147 63.5329 48.3652 64.9021 47.6144C66.2935 46.6969 67.7306 45.7492 68.0429 44.5855C68.3348 43.4948 67.6187 42.0558 66.8627 40.5409C66.0296 39.1591 65.5197 37.6067 65.3711 36C65.5197 34.3933 66.0296 32.841 66.8627 31.4592C67.6187 29.9394 68.3328 28.5052 68.0429 27.4145C67.7306 26.247 66.2916 25.3032 64.9021 24.3857C63.5329 23.6345 62.3503 22.5846 61.4423 21.314C60.7823 19.8745 60.4551 18.3048 60.4849 16.7215C60.3788 15.0013 60.2786 13.3774 59.4506 12.5485C58.6226 11.7195 56.9977 11.6202 55.2775 11.5142C53.6942 11.5448 52.1245 11.2178 50.6851 10.5578C49.4152 9.65108 48.3657 8.47023 47.6144 7.10273C46.6968 5.71235 45.7492 4.2743 44.5855 3.96295C43.4958 3.67106 42.0606 4.38522 40.5399 5.14219C39.158 5.97369 37.606 6.48193 36 6.62889C34.3936 6.48044 32.8415 5.97053 31.4601 5.13733C30.3892 4.48489 29.1951 4.06088 27.9525 3.89192H27.9496Z" fill="white"/>
<path d="M43.7565 49.6518C42.8201 49.6524 41.8984 49.4188 41.0753 48.9721C40.2523 48.5255 39.554 47.8801 39.0441 47.0947C38.5342 46.3092 38.2289 45.4087 38.1559 44.4752C38.083 43.5416 38.2447 42.6046 38.6264 41.7495C39.0081 40.8944 39.5976 40.1483 40.3413 39.5792C41.085 39.0102 41.9592 38.6362 42.8843 38.4913C43.8095 38.3464 44.7562 38.4353 45.6382 38.7497C46.5203 39.0642 47.3096 39.5943 47.9345 40.2918C48.6589 41.0986 49.1341 42.0981 49.3025 43.1693C49.4709 44.2405 49.3253 45.3376 48.8833 46.3278C48.4413 47.318 47.7219 48.1589 46.812 48.7488C45.9022 49.3387 44.8409 49.6524 43.7565 49.6518ZM43.7565 40.3726C42.9168 40.3734 42.1028 40.6624 41.4505 41.1912C40.7982 41.7201 40.3472 42.4568 40.1729 43.2783C39.9985 44.0997 40.1113 44.9561 40.4925 45.7043C40.8737 46.4526 41.5002 47.0473 42.2672 47.3892C43.0342 47.7311 43.8953 47.7993 44.7066 47.5826C45.5178 47.3658 46.2302 46.8772 46.7245 46.1984C47.2188 45.5196 47.4652 44.6917 47.4224 43.853C47.3797 43.0143 47.0504 42.2158 46.4896 41.5907C46.1455 41.2057 45.7236 40.898 45.2518 40.688C44.78 40.4781 44.269 40.3705 43.7526 40.3726H43.7565Z" fill="white"/>
<path d="M28.2483 33.5725C27.3119 33.5731 26.3902 33.3394 25.5671 32.8928C24.7441 32.4462 24.0458 31.8008 23.5359 31.0153C23.026 30.2299 22.7207 29.3294 22.6477 28.3958C22.5748 27.4622 22.7365 26.5252 23.1182 25.6701C23.4999 24.815 24.0894 24.069 24.8331 23.4999C25.5767 22.9308 26.451 22.5568 27.3761 22.412C28.3013 22.2671 29.248 22.3559 30.13 22.6704C31.0121 22.9849 31.8014 23.515 32.4263 24.2125C33.1507 25.0193 33.6259 26.0188 33.7943 27.09C33.9627 28.1612 33.8171 29.2582 33.3751 30.2484C32.9331 31.2386 32.2137 32.0795 31.3038 32.6695C30.394 33.2594 29.3327 33.573 28.2483 33.5725ZM28.2483 24.2932C27.4086 24.2943 26.5947 24.5834 25.9426 25.1124C25.2905 25.6414 24.8396 26.3782 24.6655 27.1996C24.4913 28.0211 24.6043 28.8774 24.9856 29.6255C25.3669 30.3737 25.9934 30.9683 26.7604 31.3101C27.5274 31.6518 28.3884 31.72 29.1997 31.5032C30.0109 31.2863 30.7231 30.7977 31.2174 30.1189C31.7117 29.44 31.958 28.6121 31.9152 27.7735C31.8724 26.9349 31.5431 26.1364 30.9824 25.5114C30.6376 25.1269 30.2154 24.8196 29.7436 24.6097C29.2717 24.3998 28.7609 24.2919 28.2444 24.2932H28.2483Z" fill="white"/>
<path d="M23.0332 49.6061C22.8395 49.6065 22.6502 49.549 22.4894 49.4412C22.3285 49.3333 22.2036 49.1799 22.1304 49.0006C22.0573 48.8213 22.0393 48.6243 22.0788 48.4347C22.1183 48.2451 22.2134 48.0717 22.3521 47.9365L48.2877 22.6703C48.4726 22.4897 48.7216 22.3899 48.9801 22.3929C49.2386 22.3959 49.4852 22.5015 49.6659 22.6864C49.8465 22.8712 49.9463 23.1203 49.9433 23.3788C49.9403 23.6373 49.8347 23.8839 49.6498 24.0646L23.7123 49.3298C23.5306 49.5069 23.2869 49.6061 23.0332 49.6061Z" fill="white"/>
</svg>
